<?xml version="1.0" encoding="UTF-8"?>
<svg id="Layer_2" data-name="Layer 2" xmlns="http://www.w3.org/2000/svg" viewBox="0 0 92.91 40.65">
  <defs>
    <style>
      .cls-1 {
        fill: #1c2554;
      }
    </style>
  </defs>
  <g id="Layer_1-2" data-name="Layer 1">
    <g>
      <g>
        <g>
          <g>
            <path class="cls-1" d="M3.77,17.18h2.74l3.75,9.64h-1.97l-.95-2.46H2.88l-.93,2.46H0l3.77-9.64ZM6.72,22.62l-1.63-3.99-1.57,3.99h3.2Z"/>
            <path class="cls-1" d="M15.16,17.18h6.6c1.65,0,2.74,1.16,2.74,2.89,0,1.54-.96,2.63-2.4,2.77l2.4,3.98h-2.08l-2.31-3.96h-3.12v3.96h-1.84v-9.64ZM21.76,21.12c.55,0,.9-.39.9-.96v-.28c0-.58-.36-.96-.9-.96h-4.76v2.21h4.76Z"/>
            <path class="cls-1" d="M32.78,17.18h2.74l3.75,9.64h-1.97l-.95-2.46h-4.46l-.93,2.46h-1.94l3.77-9.64ZM35.74,22.62l-1.63-3.99-1.57,3.99h3.2Z"/>
            <path class="cls-1" d="M47.11,17.18h2.74l3.75,9.64h-1.97l-.95-2.46h-4.46l-.93,2.46h-1.94l3.77-9.64ZM50.07,22.62l-1.63-3.99-1.57,3.99h3.2Z"/>
            <path class="cls-1" d="M73.39,17.18h1.84v9.64h-1.84v-9.64Z"/>
            <path class="cls-1" d="M80.48,23.92h1.82c0,.82,1.04,1.35,2.57,1.35,1.66,0,2.57-.5,2.57-1.41,0-.77-.8-1.1-2.64-1.1-2.89,0-4.14-.82-4.14-2.76s1.47-3.03,4.21-3.03c2.52,0,4.21,1.23,4.21,3.09h-1.82c0-.82-.96-1.35-2.39-1.35-1.54,0-2.37.45-2.37,1.29,0,.73.73,1.02,2.48,1.02,3.01,0,4.3.86,4.3,2.83s-1.54,3.14-4.41,3.14c-2.63,0-4.39-1.23-4.39-3.09Z"/>
          </g>
          <g>
            <path class="cls-1" d="M47.96,34.47c-.22,0-.42.03-.59.1-.17.07-.32.17-.46.29-.13.12-.25.27-.35.44s-.19.36-.27.55l-.27.67c-.08.22-.18.37-.29.46-.11.09-.28.13-.52.13h-4.43c-.48,0-.71-.24-.71-.71v-1.02h-.93v1.02c0,.29-.05.49-.14.62s-.23.19-.42.19h-.13c-.2,0-.35-.06-.43-.19s-.12-.33-.12-.62v-.64h-.93v.64c0,.27-.06.45-.19.56s-.33.16-.62.16h-.77l-.26-1.35-.92.18.16.75c.06.27.1.5.13.71.03.21.05.39.05.53,0,.48-.12.82-.36,1.04-.24.22-.62.33-1.13.33h-.7c-.54,0-.96-.12-1.26-.37s-.45-.58-.45-1.02c0-.2.04-.42.11-.67.08-.24.17-.49.29-.75l-.82-.24c-.14.32-.25.64-.33.96-.08.31-.12.61-.12.89,0,.8.25,1.42.75,1.87.5.45,1.22.67,2.17.67.87,0,1.53-.19,1.97-.56.44-.37.69-.95.76-1.74h.43c.32,0,.58-.09.78-.27.2-.18.32-.45.38-.82h.05c.07.41.2.72.38.91.18.2.44.29.77.29.31,0,.56-.1.74-.29.18-.19.29-.5.33-.92h.06c.08.38.24.66.48.83s.6.26,1.06.26h4.07c.34,0,.62-.04.83-.12.21-.08.39-.22.53-.42l2.54.75.8-1.19v-.33c0-.8-.15-1.44-.44-1.89s-.71-.68-1.26-.68ZM48.76,37.24l-1.96-.58.09-.24c.08-.23.19-.41.33-.53.14-.12.32-.18.54-.18.3,0,.55.12.73.35.18.23.27.56.27.98v.2Z"/>
            <rect class="cls-1" x="50.63" y="31.32" width="1.02" height="7.04"/>
            <path class="cls-1" d="M54.5,36.22l-.14-.84-.92.15.2,1.21c.03.18.06.36.08.54.02.17.03.34.03.5,0,.53-.12.93-.38,1.2s-.69.41-1.3.41h-.37v1.25h.38c.44,0,.83-.07,1.16-.21.33-.14.6-.34.81-.6s.37-.56.47-.91.15-.74.15-1.16c0-.2-.01-.42-.04-.68-.03-.26-.06-.54-.11-.85Z"/>
            <rect class="cls-1" x="55.62" y="31.32" width="1.02" height="7.04"/>
          </g>
          <path class="cls-1" d="M66.14,17.18c-1.35,0-1.94,1.32-2.37,2.28-.18.4-.55,1.24-.76,1.24s-.58-.84-.76-1.24c-.43-.96-1.01-2.28-2.37-2.28h-1.46v9.64h1.84v-7.43c.14.26.29.58.38.79.43.96,1.01,2.28,2.37,2.28s1.94-1.32,2.37-2.28c.09-.21.24-.53.38-.8v7.44s1.83,0,1.83,0v-9.64h-1.46Z"/>
        </g>
        <path class="cls-1" d="M32.72,2.73c0,1.13.14,6.21,2.36,6.21,3.07,0,3.07-8.94,6.15-8.94s3.07,11.18,6.15,11.18,3.07-8.94,6.15-8.94,3.03,5.59,3.03,7.04l-23.83-6.54Z"/>
      </g>
      <path class="cls-1" d="M90.05,18.35c.03-.75.68-1.37,1.44-1.36.81,0,1.42.61,1.42,1.43s-.63,1.43-1.43,1.43-1.46-.67-1.42-1.5ZM92.64,18.39c0-.63-.54-1.15-1.16-1.15-.66,0-1.17.51-1.17,1.17s.5,1.17,1.16,1.17,1.18-.53,1.17-1.19ZM90.94,19.17v-1.52h.61c.32,0,.61.16.61.52,0,.22-.11.4-.32.47l.34.54h-.3l-.29-.49h-.4v.49h-.26ZM91.19,18.48h.33c.2,0,.39-.08.39-.31s-.19-.3-.39-.3h-.33v.61Z"/>
    </g>
  </g>
</svg>